<mxfile host="app.diagrams.net" modified="2021-09-07T03:40:15.746Z" agent="5.0 (Macintosh; Intel Mac OS X 10_15_7) AppleWebKit/537.36 (KHTML, like Gecko) Chrome/92.0.4515.159 Safari/537.36" etag="w-GGHDZB8GVmtVpep17p" version="15.0.3" type="github">
  <diagram id="-DoAGw-nP2kCD0KnLcRQ" name="Page-1">
    <mxGraphModel dx="2066" dy="1869" grid="1" gridSize="10" guides="1" tooltips="1" connect="1" arrows="1" fold="1" page="1" pageScale="1" pageWidth="850" pageHeight="1100" math="0" shadow="0">
      <root>
        <mxCell id="0" />
        <mxCell id="1" parent="0" />
        <mxCell id="xW_XVpGabypYnHZ6CGy1-46" style="edgeStyle=orthogonalEdgeStyle;rounded=0;orthogonalLoop=1;jettySize=auto;html=1;exitX=0.25;exitY=1;exitDx=0;exitDy=0;entryX=0.5;entryY=0;entryDx=0;entryDy=0;" parent="1" source="xW_XVpGabypYnHZ6CGy1-1" target="xW_XVpGabypYnHZ6CGy1-6" edge="1">
          <mxGeometry relative="1" as="geometry" />
        </mxCell>
        <mxCell id="xW_XVpGabypYnHZ6CGy1-47" style="edgeStyle=orthogonalEdgeStyle;rounded=0;orthogonalLoop=1;jettySize=auto;html=1;exitX=0.75;exitY=1;exitDx=0;exitDy=0;entryX=0.5;entryY=0;entryDx=0;entryDy=0;" parent="1" source="xW_XVpGabypYnHZ6CGy1-1" target="xW_XVpGabypYnHZ6CGy1-7" edge="1">
          <mxGeometry relative="1" as="geometry" />
        </mxCell>
        <mxCell id="xW_XVpGabypYnHZ6CGy1-1" value="Kernel0" style="rounded=0;whiteSpace=wrap;html=1;" parent="1" vertex="1">
          <mxGeometry x="340" y="100" width="120" height="60" as="geometry" />
        </mxCell>
        <mxCell id="xW_XVpGabypYnHZ6CGy1-43" style="edgeStyle=orthogonalEdgeStyle;rounded=0;orthogonalLoop=1;jettySize=auto;html=1;exitX=0.5;exitY=1;exitDx=0;exitDy=0;entryX=0.25;entryY=0;entryDx=0;entryDy=0;" parent="1" source="xW_XVpGabypYnHZ6CGy1-2" target="xW_XVpGabypYnHZ6CGy1-1" edge="1">
          <mxGeometry relative="1" as="geometry" />
        </mxCell>
        <mxCell id="xW_XVpGabypYnHZ6CGy1-2" value="" style="ellipse;whiteSpace=wrap;html=1;" parent="1" vertex="1">
          <mxGeometry x="320" y="30" width="30" height="30" as="geometry" />
        </mxCell>
        <mxCell id="xW_XVpGabypYnHZ6CGy1-44" style="edgeStyle=orthogonalEdgeStyle;rounded=0;orthogonalLoop=1;jettySize=auto;html=1;exitX=0.5;exitY=1;exitDx=0;exitDy=0;entryX=0.5;entryY=0;entryDx=0;entryDy=0;" parent="1" source="xW_XVpGabypYnHZ6CGy1-3" target="xW_XVpGabypYnHZ6CGy1-1" edge="1">
          <mxGeometry relative="1" as="geometry" />
        </mxCell>
        <mxCell id="xW_XVpGabypYnHZ6CGy1-3" value="" style="ellipse;whiteSpace=wrap;html=1;" parent="1" vertex="1">
          <mxGeometry x="385" y="30" width="30" height="30" as="geometry" />
        </mxCell>
        <mxCell id="xW_XVpGabypYnHZ6CGy1-45" style="edgeStyle=orthogonalEdgeStyle;rounded=0;orthogonalLoop=1;jettySize=auto;html=1;exitX=0.5;exitY=1;exitDx=0;exitDy=0;entryX=0.75;entryY=0;entryDx=0;entryDy=0;" parent="1" source="xW_XVpGabypYnHZ6CGy1-4" target="xW_XVpGabypYnHZ6CGy1-1" edge="1">
          <mxGeometry relative="1" as="geometry" />
        </mxCell>
        <mxCell id="xW_XVpGabypYnHZ6CGy1-4" value="" style="ellipse;whiteSpace=wrap;html=1;" parent="1" vertex="1">
          <mxGeometry x="450" y="30" width="30" height="30" as="geometry" />
        </mxCell>
        <mxCell id="xW_XVpGabypYnHZ6CGy1-56" style="edgeStyle=orthogonalEdgeStyle;rounded=0;orthogonalLoop=1;jettySize=auto;html=1;exitX=0.5;exitY=1;exitDx=0;exitDy=0;" parent="1" source="xW_XVpGabypYnHZ6CGy1-6" target="xW_XVpGabypYnHZ6CGy1-9" edge="1">
          <mxGeometry relative="1" as="geometry" />
        </mxCell>
        <mxCell id="xW_XVpGabypYnHZ6CGy1-59" style="edgeStyle=orthogonalEdgeStyle;rounded=0;orthogonalLoop=1;jettySize=auto;html=1;exitX=0;exitY=0.5;exitDx=0;exitDy=0;" parent="1" source="xW_XVpGabypYnHZ6CGy1-6" target="xW_XVpGabypYnHZ6CGy1-58" edge="1">
          <mxGeometry relative="1" as="geometry" />
        </mxCell>
        <mxCell id="xW_XVpGabypYnHZ6CGy1-6" value="" style="ellipse;whiteSpace=wrap;html=1;" parent="1" vertex="1">
          <mxGeometry x="320" y="210" width="30" height="30" as="geometry" />
        </mxCell>
        <mxCell id="xW_XVpGabypYnHZ6CGy1-57" style="edgeStyle=orthogonalEdgeStyle;rounded=0;orthogonalLoop=1;jettySize=auto;html=1;exitX=0.5;exitY=1;exitDx=0;exitDy=0;entryX=0.5;entryY=0;entryDx=0;entryDy=0;" parent="1" source="xW_XVpGabypYnHZ6CGy1-7" target="xW_XVpGabypYnHZ6CGy1-10" edge="1">
          <mxGeometry relative="1" as="geometry" />
        </mxCell>
        <mxCell id="xW_XVpGabypYnHZ6CGy1-7" value="" style="ellipse;whiteSpace=wrap;html=1;" parent="1" vertex="1">
          <mxGeometry x="450" y="210" width="30" height="30" as="geometry" />
        </mxCell>
        <mxCell id="xW_XVpGabypYnHZ6CGy1-18" style="edgeStyle=orthogonalEdgeStyle;rounded=0;orthogonalLoop=1;jettySize=auto;html=1;exitX=0.5;exitY=1;exitDx=0;exitDy=0;" parent="1" source="xW_XVpGabypYnHZ6CGy1-9" target="xW_XVpGabypYnHZ6CGy1-11" edge="1">
          <mxGeometry relative="1" as="geometry" />
        </mxCell>
        <mxCell id="xW_XVpGabypYnHZ6CGy1-9" value="" style="rounded=0;whiteSpace=wrap;html=1;" parent="1" vertex="1">
          <mxGeometry x="275" y="280" width="120" height="60" as="geometry" />
        </mxCell>
        <mxCell id="xW_XVpGabypYnHZ6CGy1-20" style="edgeStyle=orthogonalEdgeStyle;rounded=0;orthogonalLoop=1;jettySize=auto;html=1;exitX=0.5;exitY=1;exitDx=0;exitDy=0;" parent="1" source="xW_XVpGabypYnHZ6CGy1-10" target="xW_XVpGabypYnHZ6CGy1-13" edge="1">
          <mxGeometry relative="1" as="geometry" />
        </mxCell>
        <mxCell id="xW_XVpGabypYnHZ6CGy1-10" value="" style="rounded=0;whiteSpace=wrap;html=1;" parent="1" vertex="1">
          <mxGeometry x="405" y="280" width="120" height="60" as="geometry" />
        </mxCell>
        <mxCell id="xW_XVpGabypYnHZ6CGy1-19" style="edgeStyle=orthogonalEdgeStyle;rounded=0;orthogonalLoop=1;jettySize=auto;html=1;exitX=0.5;exitY=1;exitDx=0;exitDy=0;" parent="1" source="xW_XVpGabypYnHZ6CGy1-11" target="xW_XVpGabypYnHZ6CGy1-14" edge="1">
          <mxGeometry relative="1" as="geometry" />
        </mxCell>
        <mxCell id="xW_XVpGabypYnHZ6CGy1-11" value="" style="ellipse;whiteSpace=wrap;html=1;" parent="1" vertex="1">
          <mxGeometry x="320" y="380" width="30" height="30" as="geometry" />
        </mxCell>
        <mxCell id="xW_XVpGabypYnHZ6CGy1-22" style="edgeStyle=orthogonalEdgeStyle;rounded=0;orthogonalLoop=1;jettySize=auto;html=1;exitX=0.5;exitY=1;exitDx=0;exitDy=0;entryX=0.75;entryY=0;entryDx=0;entryDy=0;" parent="1" source="xW_XVpGabypYnHZ6CGy1-13" target="xW_XVpGabypYnHZ6CGy1-14" edge="1">
          <mxGeometry relative="1" as="geometry" />
        </mxCell>
        <mxCell id="xW_XVpGabypYnHZ6CGy1-13" value="" style="ellipse;whiteSpace=wrap;html=1;" parent="1" vertex="1">
          <mxGeometry x="450" y="380" width="30" height="30" as="geometry" />
        </mxCell>
        <mxCell id="xW_XVpGabypYnHZ6CGy1-83" style="edgeStyle=orthogonalEdgeStyle;rounded=0;orthogonalLoop=1;jettySize=auto;html=1;exitX=0.5;exitY=1;exitDx=0;exitDy=0;entryX=0.5;entryY=0;entryDx=0;entryDy=0;" parent="1" source="xW_XVpGabypYnHZ6CGy1-14" target="xW_XVpGabypYnHZ6CGy1-15" edge="1">
          <mxGeometry relative="1" as="geometry" />
        </mxCell>
        <mxCell id="xW_XVpGabypYnHZ6CGy1-14" value="" style="rounded=0;whiteSpace=wrap;html=1;" parent="1" vertex="1">
          <mxGeometry x="340" y="500" width="120" height="60" as="geometry" />
        </mxCell>
        <mxCell id="xW_XVpGabypYnHZ6CGy1-15" value="" style="ellipse;whiteSpace=wrap;html=1;" parent="1" vertex="1">
          <mxGeometry x="385" y="580" width="30" height="30" as="geometry" />
        </mxCell>
        <mxCell id="xW_XVpGabypYnHZ6CGy1-100" style="edgeStyle=orthogonalEdgeStyle;rounded=0;orthogonalLoop=1;jettySize=auto;html=1;exitX=0.25;exitY=0;exitDx=0;exitDy=0;entryX=0.5;entryY=1;entryDx=0;entryDy=0;" parent="1" source="xW_XVpGabypYnHZ6CGy1-16" target="xW_XVpGabypYnHZ6CGy1-85" edge="1">
          <mxGeometry relative="1" as="geometry" />
        </mxCell>
        <mxCell id="xW_XVpGabypYnHZ6CGy1-101" style="edgeStyle=orthogonalEdgeStyle;rounded=0;orthogonalLoop=1;jettySize=auto;html=1;exitX=0.5;exitY=0;exitDx=0;exitDy=0;entryX=0.5;entryY=1;entryDx=0;entryDy=0;" parent="1" source="xW_XVpGabypYnHZ6CGy1-16" target="xW_XVpGabypYnHZ6CGy1-87" edge="1">
          <mxGeometry relative="1" as="geometry" />
        </mxCell>
        <mxCell id="xW_XVpGabypYnHZ6CGy1-102" style="edgeStyle=orthogonalEdgeStyle;rounded=0;orthogonalLoop=1;jettySize=auto;html=1;exitX=0.75;exitY=0;exitDx=0;exitDy=0;entryX=0.5;entryY=1;entryDx=0;entryDy=0;" parent="1" source="xW_XVpGabypYnHZ6CGy1-16" target="xW_XVpGabypYnHZ6CGy1-86" edge="1">
          <mxGeometry relative="1" as="geometry" />
        </mxCell>
        <mxCell id="xW_XVpGabypYnHZ6CGy1-16" value="" style="rounded=0;whiteSpace=wrap;html=1;" parent="1" vertex="1">
          <mxGeometry x="730" y="500" width="120" height="60" as="geometry" />
        </mxCell>
        <mxCell id="xW_XVpGabypYnHZ6CGy1-84" style="edgeStyle=orthogonalEdgeStyle;rounded=0;orthogonalLoop=1;jettySize=auto;html=1;exitX=0.5;exitY=0;exitDx=0;exitDy=0;entryX=0.5;entryY=1;entryDx=0;entryDy=0;" parent="1" source="xW_XVpGabypYnHZ6CGy1-17" target="xW_XVpGabypYnHZ6CGy1-16" edge="1">
          <mxGeometry relative="1" as="geometry" />
        </mxCell>
        <mxCell id="xW_XVpGabypYnHZ6CGy1-17" value="" style="ellipse;whiteSpace=wrap;html=1;" parent="1" vertex="1">
          <mxGeometry x="775" y="580" width="30" height="30" as="geometry" />
        </mxCell>
        <mxCell id="xW_XVpGabypYnHZ6CGy1-73" value="next_edge[0].InputBuffer::rank0" style="edgeStyle=orthogonalEdgeStyle;rounded=0;orthogonalLoop=1;jettySize=auto;html=1;exitX=0.5;exitY=0;exitDx=0;exitDy=0;entryX=0;entryY=1;entryDx=0;entryDy=0;" parent="1" source="xW_XVpGabypYnHZ6CGy1-23" target="xW_XVpGabypYnHZ6CGy1-69" edge="1">
          <mxGeometry relative="1" as="geometry" />
        </mxCell>
        <mxCell id="xW_XVpGabypYnHZ6CGy1-23" value="Kernel1@Grad" style="rounded=0;whiteSpace=wrap;html=1;" parent="1" vertex="1">
          <mxGeometry x="600" y="280" width="120" height="60" as="geometry" />
        </mxCell>
        <mxCell id="xW_XVpGabypYnHZ6CGy1-78" value="next_edge[0].InputBuffer::rank0" style="edgeStyle=orthogonalEdgeStyle;rounded=0;orthogonalLoop=1;jettySize=auto;html=1;exitX=0.5;exitY=0;exitDx=0;exitDy=0;entryX=1;entryY=1;entryDx=0;entryDy=0;" parent="1" source="xW_XVpGabypYnHZ6CGy1-24" target="xW_XVpGabypYnHZ6CGy1-69" edge="1">
          <mxGeometry relative="1" as="geometry" />
        </mxCell>
        <mxCell id="xW_XVpGabypYnHZ6CGy1-24" value="" style="rounded=0;whiteSpace=wrap;html=1;" parent="1" vertex="1">
          <mxGeometry x="730" y="280" width="120" height="60" as="geometry" />
        </mxCell>
        <mxCell id="xW_XVpGabypYnHZ6CGy1-53" style="edgeStyle=orthogonalEdgeStyle;rounded=0;orthogonalLoop=1;jettySize=auto;html=1;exitX=0.25;exitY=0;exitDx=0;exitDy=0;entryX=0.5;entryY=1;entryDx=0;entryDy=0;" parent="1" source="xW_XVpGabypYnHZ6CGy1-26" target="xW_XVpGabypYnHZ6CGy1-48" edge="1">
          <mxGeometry relative="1" as="geometry" />
        </mxCell>
        <mxCell id="xW_XVpGabypYnHZ6CGy1-54" style="edgeStyle=orthogonalEdgeStyle;rounded=0;orthogonalLoop=1;jettySize=auto;html=1;exitX=0.5;exitY=0;exitDx=0;exitDy=0;entryX=0.5;entryY=1;entryDx=0;entryDy=0;" parent="1" source="xW_XVpGabypYnHZ6CGy1-26" target="xW_XVpGabypYnHZ6CGy1-49" edge="1">
          <mxGeometry relative="1" as="geometry" />
        </mxCell>
        <mxCell id="xW_XVpGabypYnHZ6CGy1-55" style="edgeStyle=orthogonalEdgeStyle;rounded=0;orthogonalLoop=1;jettySize=auto;html=1;exitX=0.75;exitY=0;exitDx=0;exitDy=0;entryX=0.5;entryY=1;entryDx=0;entryDy=0;" parent="1" source="xW_XVpGabypYnHZ6CGy1-26" target="xW_XVpGabypYnHZ6CGy1-50" edge="1">
          <mxGeometry relative="1" as="geometry" />
        </mxCell>
        <mxCell id="xW_XVpGabypYnHZ6CGy1-26" value="Kernel0@Grad" style="rounded=0;whiteSpace=wrap;html=1;" parent="1" vertex="1">
          <mxGeometry x="730" y="100" width="120" height="60" as="geometry" />
        </mxCell>
        <mxCell id="xW_XVpGabypYnHZ6CGy1-31" value="saved" style="ellipse;whiteSpace=wrap;html=1;" parent="1" vertex="1">
          <mxGeometry x="395" y="20" width="30" height="30" as="geometry" />
        </mxCell>
        <mxCell id="xW_XVpGabypYnHZ6CGy1-32" value="saved" style="ellipse;whiteSpace=wrap;html=1;" parent="1" vertex="1">
          <mxGeometry x="330" y="20" width="30" height="30" as="geometry" />
        </mxCell>
        <mxCell id="xW_XVpGabypYnHZ6CGy1-37" value="" style="endArrow=diamondThin;endFill=0;endSize=24;html=1;exitX=1;exitY=0.5;exitDx=0;exitDy=0;entryX=0;entryY=0.5;entryDx=0;entryDy=0;" parent="1" source="xW_XVpGabypYnHZ6CGy1-6" target="xW_XVpGabypYnHZ6CGy1-26" edge="1">
          <mxGeometry width="160" relative="1" as="geometry">
            <mxPoint x="390" y="240" as="sourcePoint" />
            <mxPoint x="550" y="240" as="targetPoint" />
          </mxGeometry>
        </mxCell>
        <mxCell id="xW_XVpGabypYnHZ6CGy1-39" value="grad_node_" style="edgeLabel;html=1;align=center;verticalAlign=middle;resizable=0;points=[];" parent="xW_XVpGabypYnHZ6CGy1-37" vertex="1" connectable="0">
          <mxGeometry x="-0.154" y="3" relative="1" as="geometry">
            <mxPoint as="offset" />
          </mxGeometry>
        </mxCell>
        <mxCell id="xW_XVpGabypYnHZ6CGy1-38" value="" style="endArrow=diamondThin;endFill=0;endSize=24;html=1;exitX=1;exitY=0.5;exitDx=0;exitDy=0;entryX=0;entryY=0.5;entryDx=0;entryDy=0;" parent="1" source="xW_XVpGabypYnHZ6CGy1-7" target="xW_XVpGabypYnHZ6CGy1-26" edge="1">
          <mxGeometry width="160" relative="1" as="geometry">
            <mxPoint x="600" y="220" as="sourcePoint" />
            <mxPoint x="760" y="220" as="targetPoint" />
          </mxGeometry>
        </mxCell>
        <mxCell id="xW_XVpGabypYnHZ6CGy1-40" value="grad_node_" style="edgeLabel;html=1;align=center;verticalAlign=middle;resizable=0;points=[];" parent="xW_XVpGabypYnHZ6CGy1-38" vertex="1" connectable="0">
          <mxGeometry x="-0.3122" y="-1" relative="1" as="geometry">
            <mxPoint as="offset" />
          </mxGeometry>
        </mxCell>
        <mxCell id="xW_XVpGabypYnHZ6CGy1-41" value="" style="endArrow=diamondThin;endFill=1;endSize=24;html=1;exitX=0;exitY=0.5;exitDx=0;exitDy=0;entryX=1;entryY=0;entryDx=0;entryDy=0;" parent="1" source="xW_XVpGabypYnHZ6CGy1-26" target="xW_XVpGabypYnHZ6CGy1-32" edge="1">
          <mxGeometry width="160" relative="1" as="geometry">
            <mxPoint x="630" y="230" as="sourcePoint" />
            <mxPoint x="790" y="230" as="targetPoint" />
          </mxGeometry>
        </mxCell>
        <mxCell id="xW_XVpGabypYnHZ6CGy1-42" value="" style="endArrow=diamondThin;endFill=1;endSize=24;html=1;exitX=0;exitY=0.5;exitDx=0;exitDy=0;entryX=1;entryY=0;entryDx=0;entryDy=0;" parent="1" source="xW_XVpGabypYnHZ6CGy1-26" target="xW_XVpGabypYnHZ6CGy1-31" edge="1">
          <mxGeometry width="160" relative="1" as="geometry">
            <mxPoint x="660" y="125" as="sourcePoint" />
            <mxPoint x="365.6066017177982" y="204.39339828220182" as="targetPoint" />
          </mxGeometry>
        </mxCell>
        <mxCell id="xW_XVpGabypYnHZ6CGy1-48" value="" style="ellipse;whiteSpace=wrap;html=1;" parent="1" vertex="1">
          <mxGeometry x="690" y="30" width="30" height="30" as="geometry" />
        </mxCell>
        <mxCell id="xW_XVpGabypYnHZ6CGy1-49" value="" style="ellipse;whiteSpace=wrap;html=1;" parent="1" vertex="1">
          <mxGeometry x="775" y="30" width="30" height="30" as="geometry" />
        </mxCell>
        <mxCell id="xW_XVpGabypYnHZ6CGy1-50" value="" style="ellipse;whiteSpace=wrap;html=1;" parent="1" vertex="1">
          <mxGeometry x="850" y="30" width="30" height="30" as="geometry" />
        </mxCell>
        <mxCell id="xW_XVpGabypYnHZ6CGy1-63" style="edgeStyle=orthogonalEdgeStyle;rounded=0;orthogonalLoop=1;jettySize=auto;html=1;exitX=0.5;exitY=1;exitDx=0;exitDy=0;" parent="1" source="xW_XVpGabypYnHZ6CGy1-58" target="xW_XVpGabypYnHZ6CGy1-61" edge="1">
          <mxGeometry relative="1" as="geometry" />
        </mxCell>
        <mxCell id="xW_XVpGabypYnHZ6CGy1-58" value="Kernel1" style="rounded=0;whiteSpace=wrap;html=1;" parent="1" vertex="1">
          <mxGeometry x="144" y="280" width="120" height="60" as="geometry" />
        </mxCell>
        <mxCell id="xW_XVpGabypYnHZ6CGy1-80" style="edgeStyle=orthogonalEdgeStyle;rounded=0;orthogonalLoop=1;jettySize=auto;html=1;exitX=0.5;exitY=0;exitDx=0;exitDy=0;entryX=0.5;entryY=1;entryDx=0;entryDy=0;" parent="1" source="xW_XVpGabypYnHZ6CGy1-60" target="xW_XVpGabypYnHZ6CGy1-70" edge="1">
          <mxGeometry relative="1" as="geometry" />
        </mxCell>
        <mxCell id="xW_XVpGabypYnHZ6CGy1-81" value="next_edge[0].InputBuffer::rank 1" style="edgeLabel;html=1;align=center;verticalAlign=middle;resizable=0;points=[];" parent="xW_XVpGabypYnHZ6CGy1-80" vertex="1" connectable="0">
          <mxGeometry x="0.2571" relative="1" as="geometry">
            <mxPoint x="76" as="offset" />
          </mxGeometry>
        </mxCell>
        <mxCell id="xW_XVpGabypYnHZ6CGy1-60" value="" style="rounded=0;whiteSpace=wrap;html=1;" parent="1" vertex="1">
          <mxGeometry x="860" y="280" width="120" height="60" as="geometry" />
        </mxCell>
        <mxCell id="xW_XVpGabypYnHZ6CGy1-62" style="edgeStyle=orthogonalEdgeStyle;rounded=0;orthogonalLoop=1;jettySize=auto;html=1;exitX=0.5;exitY=1;exitDx=0;exitDy=0;entryX=0.25;entryY=0;entryDx=0;entryDy=0;" parent="1" source="xW_XVpGabypYnHZ6CGy1-61" target="xW_XVpGabypYnHZ6CGy1-14" edge="1">
          <mxGeometry relative="1" as="geometry">
            <Array as="points">
              <mxPoint x="204" y="470" />
              <mxPoint x="370" y="470" />
            </Array>
          </mxGeometry>
        </mxCell>
        <mxCell id="xW_XVpGabypYnHZ6CGy1-61" value="" style="ellipse;whiteSpace=wrap;html=1;" parent="1" vertex="1">
          <mxGeometry x="189" y="380" width="30" height="30" as="geometry" />
        </mxCell>
        <mxCell id="xW_XVpGabypYnHZ6CGy1-65" value="" style="endArrow=diamondThin;endFill=0;endSize=24;html=1;exitX=1;exitY=0.5;exitDx=0;exitDy=0;entryX=0;entryY=0.5;entryDx=0;entryDy=0;" parent="1" source="xW_XVpGabypYnHZ6CGy1-61" target="xW_XVpGabypYnHZ6CGy1-23" edge="1">
          <mxGeometry width="160" relative="1" as="geometry">
            <mxPoint x="30" y="540" as="sourcePoint" />
            <mxPoint x="190" y="540" as="targetPoint" />
          </mxGeometry>
        </mxCell>
        <mxCell id="xW_XVpGabypYnHZ6CGy1-66" value="grad_node_" style="edgeLabel;html=1;align=center;verticalAlign=middle;resizable=0;points=[];" parent="xW_XVpGabypYnHZ6CGy1-65" vertex="1" connectable="0">
          <mxGeometry x="-0.7355" y="2" relative="1" as="geometry">
            <mxPoint as="offset" />
          </mxGeometry>
        </mxCell>
        <mxCell id="xW_XVpGabypYnHZ6CGy1-67" value="" style="endArrow=diamondThin;endFill=1;endSize=24;html=1;exitX=0.25;exitY=0;exitDx=0;exitDy=0;" parent="1" source="xW_XVpGabypYnHZ6CGy1-23" edge="1">
          <mxGeometry width="160" relative="1" as="geometry">
            <mxPoint x="620" y="250" as="sourcePoint" />
            <mxPoint x="730" y="130" as="targetPoint" />
          </mxGeometry>
        </mxCell>
        <mxCell id="xW_XVpGabypYnHZ6CGy1-68" value="rank: 0(Edge)" style="edgeLabel;html=1;align=center;verticalAlign=middle;resizable=0;points=[];" parent="xW_XVpGabypYnHZ6CGy1-67" vertex="1" connectable="0">
          <mxGeometry x="-0.3108" y="1" relative="1" as="geometry">
            <mxPoint as="offset" />
          </mxGeometry>
        </mxCell>
        <mxCell id="xW_XVpGabypYnHZ6CGy1-77" style="edgeStyle=orthogonalEdgeStyle;rounded=0;orthogonalLoop=1;jettySize=auto;html=1;exitX=0.5;exitY=0;exitDx=0;exitDy=0;entryX=0.25;entryY=1;entryDx=0;entryDy=0;" parent="1" source="xW_XVpGabypYnHZ6CGy1-69" target="xW_XVpGabypYnHZ6CGy1-26" edge="1">
          <mxGeometry relative="1" as="geometry" />
        </mxCell>
        <mxCell id="xW_XVpGabypYnHZ6CGy1-69" value="" style="ellipse;whiteSpace=wrap;html=1;" parent="1" vertex="1">
          <mxGeometry x="720" y="210" width="30" height="30" as="geometry" />
        </mxCell>
        <mxCell id="xW_XVpGabypYnHZ6CGy1-82" style="edgeStyle=orthogonalEdgeStyle;rounded=0;orthogonalLoop=1;jettySize=auto;html=1;exitX=0.5;exitY=0;exitDx=0;exitDy=0;entryX=0.75;entryY=1;entryDx=0;entryDy=0;" parent="1" source="xW_XVpGabypYnHZ6CGy1-70" target="xW_XVpGabypYnHZ6CGy1-26" edge="1">
          <mxGeometry relative="1" as="geometry" />
        </mxCell>
        <mxCell id="xW_XVpGabypYnHZ6CGy1-70" value="" style="ellipse;whiteSpace=wrap;html=1;" parent="1" vertex="1">
          <mxGeometry x="840" y="210" width="30" height="30" as="geometry" />
        </mxCell>
        <mxCell id="xW_XVpGabypYnHZ6CGy1-76" value="grad input rank = foward output rank" style="endArrow=none;dashed=1;html=1;dashPattern=1 3;strokeWidth=2;exitX=1;exitY=0.5;exitDx=0;exitDy=0;entryX=0;entryY=0.5;entryDx=0;entryDy=0;" parent="1" source="xW_XVpGabypYnHZ6CGy1-6" target="xW_XVpGabypYnHZ6CGy1-69" edge="1">
          <mxGeometry x="-0.0811" y="-5" width="50" height="50" relative="1" as="geometry">
            <mxPoint x="390" y="260" as="sourcePoint" />
            <mxPoint x="440" y="210" as="targetPoint" />
            <mxPoint as="offset" />
          </mxGeometry>
        </mxCell>
        <mxCell id="xW_XVpGabypYnHZ6CGy1-79" value="" style="endArrow=none;dashed=1;html=1;dashPattern=1 3;strokeWidth=2;exitX=1;exitY=1;exitDx=0;exitDy=0;entryX=0;entryY=1;entryDx=0;entryDy=0;" parent="1" source="xW_XVpGabypYnHZ6CGy1-7" target="xW_XVpGabypYnHZ6CGy1-70" edge="1">
          <mxGeometry width="50" height="50" relative="1" as="geometry">
            <mxPoint x="470" y="300" as="sourcePoint" />
            <mxPoint x="520" y="250" as="targetPoint" />
          </mxGeometry>
        </mxCell>
        <mxCell id="xW_XVpGabypYnHZ6CGy1-103" style="edgeStyle=orthogonalEdgeStyle;rounded=0;orthogonalLoop=1;jettySize=auto;html=1;exitX=0.5;exitY=0;exitDx=0;exitDy=0;entryX=0.5;entryY=1;entryDx=0;entryDy=0;" parent="1" source="xW_XVpGabypYnHZ6CGy1-85" target="xW_XVpGabypYnHZ6CGy1-23" edge="1">
          <mxGeometry relative="1" as="geometry" />
        </mxCell>
        <mxCell id="xW_XVpGabypYnHZ6CGy1-85" value="" style="ellipse;whiteSpace=wrap;html=1;" parent="1" vertex="1">
          <mxGeometry x="645" y="380" width="30" height="30" as="geometry" />
        </mxCell>
        <mxCell id="xW_XVpGabypYnHZ6CGy1-105" style="edgeStyle=orthogonalEdgeStyle;rounded=0;orthogonalLoop=1;jettySize=auto;html=1;exitX=0.5;exitY=0;exitDx=0;exitDy=0;entryX=0.5;entryY=1;entryDx=0;entryDy=0;" parent="1" source="xW_XVpGabypYnHZ6CGy1-86" target="xW_XVpGabypYnHZ6CGy1-60" edge="1">
          <mxGeometry relative="1" as="geometry" />
        </mxCell>
        <mxCell id="xW_XVpGabypYnHZ6CGy1-86" value="" style="ellipse;whiteSpace=wrap;html=1;" parent="1" vertex="1">
          <mxGeometry x="905" y="380" width="30" height="30" as="geometry" />
        </mxCell>
        <mxCell id="xW_XVpGabypYnHZ6CGy1-104" style="edgeStyle=orthogonalEdgeStyle;rounded=0;orthogonalLoop=1;jettySize=auto;html=1;exitX=0.5;exitY=0;exitDx=0;exitDy=0;entryX=0.5;entryY=1;entryDx=0;entryDy=0;" parent="1" source="xW_XVpGabypYnHZ6CGy1-87" target="xW_XVpGabypYnHZ6CGy1-24" edge="1">
          <mxGeometry relative="1" as="geometry" />
        </mxCell>
        <mxCell id="xW_XVpGabypYnHZ6CGy1-87" value="" style="ellipse;whiteSpace=wrap;html=1;" parent="1" vertex="1">
          <mxGeometry x="775" y="380" width="30" height="30" as="geometry" />
        </mxCell>
        <mxCell id="xW_XVpGabypYnHZ6CGy1-88" value="saved" style="ellipse;whiteSpace=wrap;html=1;" parent="1" vertex="1">
          <mxGeometry x="460" y="200" width="30" height="30" as="geometry" />
        </mxCell>
        <mxCell id="xW_XVpGabypYnHZ6CGy1-89" value="saved" style="ellipse;whiteSpace=wrap;html=1;" parent="1" vertex="1">
          <mxGeometry x="330" y="200" width="30" height="30" as="geometry" />
        </mxCell>
        <mxCell id="xW_XVpGabypYnHZ6CGy1-90" value="saved" style="ellipse;whiteSpace=wrap;html=1;" parent="1" vertex="1">
          <mxGeometry x="200" y="370" width="30" height="30" as="geometry" />
        </mxCell>
        <mxCell id="xW_XVpGabypYnHZ6CGy1-93" value="" style="endArrow=diamondThin;endFill=0;endSize=24;html=1;exitX=1;exitY=0.5;exitDx=0;exitDy=0;entryX=0;entryY=0.5;entryDx=0;entryDy=0;" parent="1" source="xW_XVpGabypYnHZ6CGy1-11" target="xW_XVpGabypYnHZ6CGy1-24" edge="1">
          <mxGeometry width="160" relative="1" as="geometry">
            <mxPoint x="90" y="600" as="sourcePoint" />
            <mxPoint x="250" y="600" as="targetPoint" />
          </mxGeometry>
        </mxCell>
        <mxCell id="xW_XVpGabypYnHZ6CGy1-91" value="saved" style="ellipse;whiteSpace=wrap;html=1;" parent="1" vertex="1">
          <mxGeometry x="330" y="370" width="30" height="30" as="geometry" />
        </mxCell>
        <mxCell id="xW_XVpGabypYnHZ6CGy1-96" value="" style="endArrow=diamondThin;endFill=0;endSize=24;html=1;exitX=1;exitY=0.5;exitDx=0;exitDy=0;entryX=0;entryY=0.5;entryDx=0;entryDy=0;" parent="1" source="xW_XVpGabypYnHZ6CGy1-13" target="xW_XVpGabypYnHZ6CGy1-60" edge="1">
          <mxGeometry width="160" relative="1" as="geometry">
            <mxPoint x="355.6066017177982" y="415.6066017177982" as="sourcePoint" />
            <mxPoint x="740" y="320" as="targetPoint" />
          </mxGeometry>
        </mxCell>
        <mxCell id="xW_XVpGabypYnHZ6CGy1-92" value="saved" style="ellipse;whiteSpace=wrap;html=1;" parent="1" vertex="1">
          <mxGeometry x="460" y="370" width="30" height="30" as="geometry" />
        </mxCell>
        <mxCell id="xW_XVpGabypYnHZ6CGy1-97" value="" style="endArrow=diamondThin;endFill=1;endSize=24;html=1;exitX=0;exitY=0.5;exitDx=0;exitDy=0;entryX=1;entryY=0.5;entryDx=0;entryDy=0;" parent="1" source="xW_XVpGabypYnHZ6CGy1-23" target="xW_XVpGabypYnHZ6CGy1-89" edge="1">
          <mxGeometry width="160" relative="1" as="geometry">
            <mxPoint x="590" y="470" as="sourcePoint" />
            <mxPoint x="750" y="470" as="targetPoint" />
          </mxGeometry>
        </mxCell>
        <mxCell id="xW_XVpGabypYnHZ6CGy1-98" value="" style="endArrow=diamondThin;endFill=1;endSize=24;html=1;exitX=0;exitY=0.5;exitDx=0;exitDy=0;entryX=1;entryY=0.5;entryDx=0;entryDy=0;" parent="1" source="xW_XVpGabypYnHZ6CGy1-60" target="xW_XVpGabypYnHZ6CGy1-88" edge="1">
          <mxGeometry width="160" relative="1" as="geometry">
            <mxPoint x="610" y="320" as="sourcePoint" />
            <mxPoint x="370" y="225" as="targetPoint" />
          </mxGeometry>
        </mxCell>
        <mxCell id="xW_XVpGabypYnHZ6CGy1-99" value="" style="endArrow=diamondThin;endFill=1;endSize=24;html=1;exitX=0;exitY=0.5;exitDx=0;exitDy=0;entryX=1;entryY=0.5;entryDx=0;entryDy=0;" parent="1" source="xW_XVpGabypYnHZ6CGy1-24" target="xW_XVpGabypYnHZ6CGy1-89" edge="1">
          <mxGeometry width="160" relative="1" as="geometry">
            <mxPoint x="610" y="320" as="sourcePoint" />
            <mxPoint x="370" y="225" as="targetPoint" />
          </mxGeometry>
        </mxCell>
      </root>
    </mxGraphModel>
  </diagram>
</mxfile>
